<?xml version="1.0" encoding="utf-8"?>
<!-- Generator: Adobe Illustrator 15.0.0, SVG Export Plug-In . SVG Version: 6.00 Build 0)  -->
<!DOCTYPE svg PUBLIC "-//W3C//DTD SVG 1.1//EN" "http://www.w3.org/Graphics/SVG/1.1/DTD/svg11.dtd">
<svg version="1.1" id="Layer_1" xmlns="http://www.w3.org/2000/svg" xmlns:xlink="http://www.w3.org/1999/xlink" x="0px" y="0px"
	 width="512px" height="512px" viewBox="0 0 512 512" enable-background="new 0 0 512 512" xml:space="preserve">
<g>
	<g>
		<g>
			<path d="M474.006,110.753h-0.661V110.6h-5.492V99.565c0-16.681-13.528-30.208-30.209-30.208h-31.021
				c-16.681,0-30.208,13.527-30.208,30.208V110.6H144.158V99.565c0-16.681-13.528-30.208-30.208-30.208H82.928
				c-16.681,0-30.208,13.527-30.208,30.208v11.137H38.429C21.087,110.702,7,124.789,7,142.131v272.941
				C7,432.414,21.087,446.5,38.429,446.5h435.577c17.342,0,31.429-14.086,31.429-31.428V142.182
				C505.384,124.84,491.297,110.753,474.006,110.753z M82.928,78.104h31.021c11.849,0,21.512,9.662,21.512,21.512v11.035H61.416
				V99.616C61.416,87.715,71.078,78.104,82.928,78.104z M406.673,78.104h31.022c11.849,0,21.512,9.662,21.512,21.512v11.035h-74.046
				V99.616C385.161,87.715,394.824,78.104,406.673,78.104z M474.006,437.754H38.429c-12.511,0-22.682-10.172-22.682-22.682V142.182
				c0-12.51,10.171-22.682,22.682-22.682h21.969l1.017-0.152h74.046v0.152h248.683l1.017-0.152h73.995v0.152h14.799
				c12.51,0,22.681,10.171,22.681,22.682v272.891C496.688,427.582,486.465,437.754,474.006,437.754z"/>
			<rect x="388.467" y="167.813" width="67.18" height="8.696"/>
			<polygon points="101.694,139.639 92.946,139.639 92.946,167.813 63.704,167.813 63.704,176.56 92.946,176.56 92.946,206.87 
				101.694,206.87 101.694,176.56 130.935,176.56 130.935,167.813 101.694,167.813 			"/>
		</g>
	</g>
</g>
</svg>
