<?xml version="1.0" encoding="utf-8"?>
<!-- Generator: Adobe Illustrator 15.0.0, SVG Export Plug-In . SVG Version: 6.00 Build 0)  -->
<!DOCTYPE svg PUBLIC "-//W3C//DTD SVG 1.1//EN" "http://www.w3.org/Graphics/SVG/1.1/DTD/svg11.dtd">
<svg version="1.1" id="Layer_1" xmlns="http://www.w3.org/2000/svg" xmlns:xlink="http://www.w3.org/1999/xlink" x="0px" y="0px"
	 width="512px" height="512px" viewBox="0 0 512 512" enable-background="new 0 0 512 512" xml:space="preserve">
<g>
	<g transform="translate(0.000000,245.000000) scale(0.100000,-0.100000)">
		<path d="M1072.453,990.537c-64.263-42.49-84.009-126.548-43.477-187.812c13.823-20.781,2.935-34.6-227.368-310.391
			C610.803,264.965,554.495,202.67,530.774,197.773c-21.768-4.951-56.367-38.521-139.395-139.395
			C298.406-53.379,276.687-74.102,253.948-74.102c-32.637,0-60.283,26.709-60.283,57.344c0,29.658,33.628,61.318,64.253,61.318
			c13.823,0,36.562,10.879,49.404,24.702c32.646,31.611,32.646,77.095,0,108.755c-62.29,63.276-214.526,0-257.021-105.762
			c-79.102-198.75,130.469-384.6,313.389-277.852c17.793,9.893,72.148,65.234,120.615,122.568
			C601.936,55.39,628.645,92.934,628.645,119.648c0,26.66,462.622,583.242,474.482,570.4
			c3.979-3.975,87.983-131.504,186.841-282.705l178.94-275.786l-14.844-94.888c-7.896-52.397-17.793-105.771-19.756-117.627
			l-4.951-22.744h-279.761H870.813L689.914-284.61L509.988-465.508l1.963-190.801l2.935-190.811l106.748-66.211l106.748-65.234
			l45.488-93.906c173.984-359.854,627.69-446.846,916.377-176.943c35.581,32.656,74.15,75.146,86.011,93.916l20.786,33.623h1040.918
			h1040.918l20.771-33.623c11.865-18.77,51.426-61.26,87.988-95.869c219.473-206.582,554.561-207.607,781.934-2.988
			c31.611,29.648,76.113,82.041,97.881,115.674c39.551,62.285,40.527,63.271,129.482,94.883l89.941,32.637v507.129V4.077
			l-56.367,20.786c-31.611,11.86-258.975,96.895-506.152,189.771c-247.109,91.948-456.689,171.006-465.605,175.952
			c-8.926,4.951-84.004,107.783-168.066,229.326c-174.971,253.052-227.363,312.354-299.512,345l-51.416,23.721l-550.605,2.988
			l-550.591,2.993l-5.933-42.495c-5.928-45.479-113.657-1034.98-113.657-1047.822c0-4.951-26.709-7.891-59.307-7.891
			c-40.532,0-59.302,3.965-59.302,12.842c0,5.928,8.926,87.969,19.751,179.922c17.793,153.208,17.793,169.043,3.97,179.922
			c-43.477,32.437-903.535,647.29-968.769,692.778C1169.343,1021.171,1127.781,1028.081,1072.453,990.537z M3532.902,761.21
			c15.83-12.837,77.09-93.906,135.42-178.945l106.738-154.238l-68.164-68.174l-67.246-68.228h-379.599h-379.6l5.928,195.757
			c3.975,106.748,8.877,218.447,11.865,247.119l4.951,51.411h300.488h299.511L3532.902,761.21z M1432.244-581.231
			c164.092-95.869,193.74-305.439,61.318-437.92c-87.974-88.955-207.612-108.76-319.321-52.402
			c-101.846,50.439-154.189,133.467-154.189,247.129s73.179,222.422,175.957,259.951
			C1260.261-539.717,1375.935-548.633,1432.244-581.231z M4473.986-563.438c203.643-72.148,247.109-350.928,75.127-480.41
			c-61.26-46.465-117.627-62.305-198.691-56.367c-224.385,18.77-331.182,287.646-180.908,457.666
			C4245.627-556.524,4366.252-524.864,4473.986-563.438z"/>
	</g>
</g>
</svg>
